<svg version="1.1" xmlns="http://www.w3.org/2000/svg" xmlns:xlink="http://www.w3.org/1999/xlink" width="57.7637"
       height="52.0752">
       <g>
              <rect height="52.0752" opacity="0" width="57.7637" x="0" y="0" />
              <path d="M57.4219 16.4795L57.4219 47.6318C57.4219 50.3418 55.8594 52.0752 53.3936 52.0752L34.8389 52.0752C37.1453 52.0752 38.6614 50.5587 38.8472 48.1445L52.0996 48.1445C53.0518 48.1445 53.4912 47.6807 53.4912 46.7285L53.4912 17.3828C53.4912 16.4307 53.0518 15.9668 52.0996 15.9668L38.8672 15.9668L38.8672 12.0361L53.3936 12.0361C55.8594 12.0361 57.4219 13.7695 57.4219 16.4795ZM48.9746 39.4775L48.9746 43.2861C48.9746 43.7744 48.6328 44.1162 48.1445 44.1162L44.2139 44.1162C43.7012 44.1162 43.4082 43.7744 43.4082 43.2861L43.4082 39.4775C43.4082 38.9893 43.7012 38.6475 44.2139 38.6475L48.1445 38.6475C48.6328 38.6475 48.9746 38.9893 48.9746 39.4775ZM48.9746 30.1514L48.9746 33.96C48.9746 34.4482 48.6328 34.79 48.1445 34.79L44.2139 34.79C43.7012 34.79 43.4082 34.4482 43.4082 33.96L43.4082 30.1514C43.4082 29.6631 43.7012 29.3213 44.2139 29.3213L48.1445 29.3213C48.6328 29.3213 48.9746 29.6631 48.9746 30.1514ZM48.9746 20.8252L48.9746 24.6338C48.9746 25.1221 48.6328 25.4639 48.1445 25.4639L44.2139 25.4639C43.7012 25.4639 43.4082 25.1221 43.4082 24.6338L43.4082 20.8252C43.4082 20.3369 43.7012 19.9951 44.2139 19.9951L48.1445 19.9951C48.6328 19.9951 48.9746 20.3369 48.9746 20.8252Z"
                     fill="#ffffff" fill-opacity="0.85" />
              <path d="M0 47.6318C0 50.3418 1.5625 52.0752 4.05273 52.0752L34.8389 52.0752C37.3047 52.0752 38.8672 50.3418 38.8672 47.6318L38.8672 4.46777C38.8672 1.75781 37.3047 0.0244141 34.8389 0.0244141L4.05273 0.0244141C1.5625 0.0244141 0 1.75781 0 4.46777ZM3.93066 46.7285L3.93066 5.37109C3.93066 4.39453 4.37012 3.95508 5.34668 3.95508L33.5449 3.95508C34.4971 3.95508 34.9365 4.39453 34.9365 5.37109L34.9365 46.7285C34.9365 47.6807 34.4971 48.1445 33.5449 48.1445L5.34668 48.1445C4.37012 48.1445 3.93066 47.6807 3.93066 46.7285ZM10.9375 50L14.1357 50L14.1357 41.8457C14.1357 41.333 14.4043 41.0645 14.917 41.0645L23.9502 41.0645C24.4873 41.0645 24.7314 41.333 24.7314 41.8457L24.7314 50L27.9297 50L27.9297 40.9424C27.9297 38.8428 27.002 37.8662 25 37.8662L13.8672 37.8662C11.8652 37.8662 10.9375 38.8428 10.9375 40.9424ZM11.3281 14.624L16.0889 14.624C16.6748 14.624 17.0898 14.2334 17.0898 13.623L17.0898 9.00879C17.0898 8.42285 16.6748 8.00781 16.0889 8.00781L11.3281 8.00781C10.7422 8.00781 10.376 8.42285 10.376 9.00879L10.376 13.623C10.376 14.2334 10.7422 14.624 11.3281 14.624ZM22.7783 14.624L27.5146 14.624C28.1006 14.624 28.5156 14.2334 28.5156 13.623L28.5156 9.00879C28.5156 8.42285 28.1006 8.00781 27.5146 8.00781L22.7783 8.00781C22.168 8.00781 21.8018 8.42285 21.8018 9.00879L21.8018 13.623C21.8018 14.2334 22.168 14.624 22.7783 14.624ZM11.3281 24.292L16.0889 24.292C16.6748 24.292 17.0898 23.9014 17.0898 23.291L17.0898 18.6768C17.0898 18.0908 16.6748 17.6758 16.0889 17.6758L11.3281 17.6758C10.7422 17.6758 10.376 18.0908 10.376 18.6768L10.376 23.291C10.376 23.9014 10.7422 24.292 11.3281 24.292ZM22.7783 24.292L27.5146 24.292C28.1006 24.292 28.5156 23.9014 28.5156 23.291L28.5156 18.6768C28.5156 18.0908 28.1006 17.6758 27.5146 17.6758L22.7783 17.6758C22.168 17.6758 21.8018 18.0908 21.8018 18.6768L21.8018 23.291C21.8018 23.9014 22.168 24.292 22.7783 24.292ZM11.3281 33.96L16.0889 33.96C16.6748 33.96 17.0898 33.5449 17.0898 32.959L17.0898 28.3447C17.0898 27.7344 16.6748 27.3438 16.0889 27.3438L11.3281 27.3438C10.7422 27.3438 10.376 27.7344 10.376 28.3447L10.376 32.959C10.376 33.5449 10.7422 33.96 11.3281 33.96ZM22.7783 33.96L27.5146 33.96C28.1006 33.96 28.5156 33.5449 28.5156 32.959L28.5156 28.3447C28.5156 27.7344 28.1006 27.3438 27.5146 27.3438L22.7783 27.3438C22.168 27.3438 21.8018 27.7344 21.8018 28.3447L21.8018 32.959C21.8018 33.5449 22.168 33.96 22.7783 33.96Z"
                     fill="#ffffff" fill-opacity="0.85" />
       </g>
</svg>