<svg version="1.1" xmlns="http://www.w3.org/2000/svg" xmlns:xlink="http://www.w3.org/1999/xlink" width="64.4775" height="58.7158">
 <g>
  <rect height="58.7158" opacity="0" width="64.4775" x="0" y="0"/>
  <path d="M60.791 19.7998L60.791 50.9521C60.791 53.6621 59.2529 55.3955 56.7627 55.3955L42.6811 55.3955C43.4486 54.1557 43.8721 52.6344 43.8721 50.9521L43.8721 15.3564L56.7627 15.3564C59.2529 15.3564 60.791 17.0898 60.791 19.7998ZM50.2686 42.1631C49.7314 42.1631 49.4141 42.5293 49.4141 43.042L49.4141 46.9482C49.4141 47.4609 49.7314 47.8027 50.2686 47.8027L54.3213 47.8027C54.834 47.8027 55.1758 47.4609 55.1758 46.9482L55.1758 43.042C55.1758 42.5293 54.834 42.1631 54.3213 42.1631ZM50.2686 32.5684C49.7314 32.5684 49.4141 32.9102 49.4141 33.4229L49.4141 37.3291C49.4141 37.8418 49.7314 38.1836 50.2686 38.1836L54.3213 38.1836C54.834 38.1836 55.1758 37.8418 55.1758 37.3291L55.1758 33.4229C55.1758 32.9102 54.834 32.5684 54.3213 32.5684ZM50.2686 22.9492C49.7314 22.9492 49.4141 23.291 49.4141 23.8037L49.4141 27.71C49.4141 28.2227 49.7314 28.5889 50.2686 28.5889L54.3213 28.5889C54.834 28.5889 55.1758 28.2227 55.1758 27.71L55.1758 23.8037C55.1758 23.291 54.834 22.9492 54.3213 22.9492Z" fill="#ffffff" fill-opacity="0.85"/>
  <path d="M3.32031 50.9521C3.32031 53.6621 4.88281 55.3955 7.37305 55.3955L36.499 55.3955C38.9648 55.3955 40.5273 53.6621 40.5273 50.9521L40.5273 7.78809C40.5273 5.07812 38.9648 3.34473 36.499 3.34473L7.37305 3.34473C4.88281 3.34473 3.32031 5.07812 3.32031 7.78809ZM13.4766 51.4648L13.4766 43.5303C13.4766 42.4072 14.209 41.6748 15.3564 41.6748L28.7354 41.6748C29.8828 41.6748 30.5908 42.4072 30.5908 43.5303L30.5908 51.4648ZM12.6709 16.4551L12.6709 11.7188C12.6709 11.1084 13.0615 10.6689 13.6963 10.6689L18.5547 10.6689C19.1895 10.6689 19.6045 11.1084 19.6045 11.7188L19.6045 16.4551C19.6045 17.0898 19.1895 17.5049 18.5547 17.5049L13.6963 17.5049C13.0615 17.5049 12.6709 17.0898 12.6709 16.4551ZM24.4629 16.4551L24.4629 11.7188C24.4629 11.1084 24.8535 10.6689 25.4883 10.6689L30.3467 10.6689C30.9814 10.6689 31.3965 11.1084 31.3965 11.7188L31.3965 16.4551C31.3965 17.0898 30.9814 17.5049 30.3467 17.5049L25.4883 17.5049C24.8535 17.5049 24.4629 17.0898 24.4629 16.4551ZM12.6709 26.416L12.6709 21.6797C12.6709 21.0693 13.0615 20.6299 13.6963 20.6299L18.5547 20.6299C19.1895 20.6299 19.6045 21.0693 19.6045 21.6797L19.6045 26.416C19.6045 27.0508 19.1895 27.4658 18.5547 27.4658L13.6963 27.4658C13.0615 27.4658 12.6709 27.0508 12.6709 26.416ZM24.4629 26.416L24.4629 21.6797C24.4629 21.0693 24.8535 20.6299 25.4883 20.6299L30.3467 20.6299C30.9814 20.6299 31.3965 21.0693 31.3965 21.6797L31.3965 26.416C31.3965 27.0508 30.9814 27.4658 30.3467 27.4658L25.4883 27.4658C24.8535 27.4658 24.4629 27.0508 24.4629 26.416ZM12.6709 36.377L12.6709 31.6406C12.6709 31.0059 13.0615 30.5908 13.6963 30.5908L18.5547 30.5908C19.1895 30.5908 19.6045 31.0059 19.6045 31.6406L19.6045 36.377C19.6045 36.9873 19.1895 37.4268 18.5547 37.4268L13.6963 37.4268C13.0615 37.4268 12.6709 36.9873 12.6709 36.377ZM24.4629 36.377L24.4629 31.6406C24.4629 31.0059 24.8535 30.5908 25.4883 30.5908L30.3467 30.5908C30.9814 30.5908 31.3965 31.0059 31.3965 31.6406L31.3965 36.377C31.3965 36.9873 30.9814 37.4268 30.3467 37.4268L25.4883 37.4268C24.8535 37.4268 24.4629 36.9873 24.4629 36.377Z" fill="#ffffff" fill-opacity="0.85"/>
 </g>
</svg>
