<?xml version="1.0" encoding="UTF-8"?>
<!--Generator: Apple Native CoreSVG 232.5-->
<!DOCTYPE svg
PUBLIC "-//W3C//DTD SVG 1.1//EN"
       "http://www.w3.org/Graphics/SVG/1.1/DTD/svg11.dtd">
<svg version="1.1" xmlns="http://www.w3.org/2000/svg" xmlns:xlink="http://www.w3.org/1999/xlink" width="63.5254" height="64.0381">
 <g>
  <rect height="64.0381" opacity="0" width="63.5254" x="0" y="0"/>
  <path d="M25.708 50.5615C27.5146 50.5615 29.5166 50.293 31.5918 49.5605C33.667 50.293 35.6689 50.5615 37.4756 50.5615C42.5537 50.5615 46.3135 48.2666 47.7051 47.0703C49.7803 48.0957 51.709 48.5596 53.5156 48.5596C59.2285 48.5596 63.1836 44.4824 63.1836 38.5986C63.1836 35.6201 61.9629 32.4707 59.1553 29.6631C61.377 27.3438 62.2803 24.585 62.2803 21.875C62.2803 16.04 57.7881 10.6445 52.1973 9.98535C51.9287 4.3457 45.6543 0.317383 39.6484 0.317383C36.5967 0.317383 33.7158 1.26953 31.5918 3.4668C29.4678 1.26953 26.6113 0.317383 23.5352 0.317383C17.5293 0.317383 11.2549 4.3457 11.0107 9.98535C5.39551 10.6445 0.878906 16.04 0.878906 21.875C0.878906 24.585 1.80664 27.3438 4.02832 29.6631C1.2207 32.4707 0 35.6201 0 38.5986C0 44.4824 3.95508 48.5596 9.66797 48.5596C11.4746 48.5596 13.4033 48.0957 15.4785 47.0703C16.8457 48.2666 20.6299 50.5615 25.708 50.5615ZM25.708 47.0459C20.0195 47.0459 17.1875 43.9697 16.0645 42.7002C13.5254 44.5068 12.0361 45.0195 9.66797 45.0195C5.95703 45.0195 3.54004 42.4805 3.54004 38.5986C3.54004 36.0107 4.46777 33.9844 7.86133 30.8838C8.61816 30.2246 8.52051 29.126 7.91016 28.4912C5.05371 25.7324 4.39453 23.8281 4.39453 21.4111C4.39453 16.6992 8.03223 13.0859 13.5986 13.4521C14.4287 13.501 14.6973 12.9395 14.5996 12.3779C13.8916 7.6416 17.8955 3.83301 23.7549 3.83301C27.1484 3.83301 29.4434 5.12695 31.5918 7.42188C33.7402 5.12695 36.0352 3.83301 39.4287 3.83301C45.2881 3.83301 49.292 7.6416 48.584 12.3779C48.4863 12.9395 48.7549 13.501 49.585 13.4521C55.127 13.0859 58.7646 16.6992 58.7646 21.4111C58.7646 23.8281 58.1299 25.7324 55.2734 28.4912C54.6631 29.126 54.5654 30.2246 55.3223 30.8838C58.7158 33.9844 59.6436 36.0107 59.6436 38.5986C59.6436 42.4805 57.2021 45.0195 53.5156 45.0195C51.1475 45.0195 49.6582 44.5068 47.0947 42.7002C45.9961 43.9697 43.1641 47.0459 37.4756 47.0459C35.6201 47.0459 33.9355 46.7529 31.5918 45.8008C29.248 46.7529 27.5635 47.0459 25.708 47.0459Z" fill="#ffffff" fill-opacity="0.85"/>
  <path d="M31.5918 64.0381C33.9355 64.0381 35.4736 63.3057 35.4736 62.1338C35.4736 60.5957 35.0342 56.2256 35.0342 52.7588C35.0342 47.3633 40.6494 37.0605 41.5283 35.7178L38.3057 33.4961C37.0605 35.7666 35.5713 38.3545 33.5938 42.749L33.5938 34.3262L29.5898 34.3262L29.5898 42.7734C27.6123 38.3789 26.0986 35.7422 24.8779 33.4961L21.6797 35.7178C22.5098 37.0605 28.1494 47.3633 28.1494 52.7588C28.1494 56.2256 27.71 60.5957 27.71 62.1338C27.71 63.3057 29.248 64.0381 31.5918 64.0381Z" fill="#ffffff" fill-opacity="0.85"/>
  <path d="M18.5791 38.6963C23.1445 38.6963 25.7324 36.5967 26.8555 33.5449C28.1982 34.4482 29.7363 34.9121 31.5918 34.9121C33.4473 34.9121 34.9854 34.4482 36.3281 33.5449C37.4512 36.5967 40.0391 38.6963 44.6045 38.6963C45.4346 38.6963 46.1426 38.0371 46.1426 37.1826C46.1426 36.3525 45.4346 35.6445 44.6045 35.6445C40.5029 35.5957 38.7207 33.3008 38.5986 29.8828C38.5742 28.6621 36.8896 28.1738 36.1572 29.2236C35.1318 30.7373 33.667 31.6162 31.5918 31.6162C29.5166 31.6162 28.0518 30.7373 27.0264 29.2236C26.2939 28.1738 24.6094 28.6621 24.585 29.8828C24.4629 33.3008 22.6807 35.5957 18.5791 35.6445C17.749 35.6445 17.041 36.3525 17.041 37.1826C17.041 38.0371 17.749 38.6963 18.5791 38.6963Z" fill="#ffffff" fill-opacity="0.85"/>
 </g>
</svg>
