<svg version="1.1" xmlns="http://www.w3.org/2000/svg" xmlns:xlink="http://www.w3.org/1999/xlink" width="63.5254" height="64.0381">
 <g>
  <rect height="64.0381" opacity="0" width="63.5254" x="0" y="0"/>
  <path d="M31.5918 64.0381C33.9355 64.0381 35.4736 63.3057 35.4736 62.1338C35.4736 60.5957 35.0342 56.2256 35.0342 52.7588C35.0342 48.4863 38.4521 41.2842 42.8955 32.7881L39.6484 31.0303C36.2549 37.1826 34.9854 39.6484 33.5938 42.749L33.4717 31.0791L29.541 30.8594L29.5898 42.7734C28.2227 39.6729 26.7578 36.9385 23.7549 31.7627L21.2646 35.083C24.707 41.2842 28.1494 48.4863 28.1494 52.7588C28.1494 56.2256 27.71 60.5957 27.71 62.1338C27.71 63.3057 29.248 64.0381 31.5918 64.0381Z" fill="#ffffff" fill-opacity="0.85"/>
  <path d="M0 38.5986C0 44.4824 3.95508 48.5596 9.66797 48.5596C11.4746 48.5596 13.4033 48.0957 15.4785 47.0703C16.9922 48.4375 20.7031 50.3662 25.0244 50.5371C24.1699 46.6553 21.5088 41.2842 19.8975 38.3301C23.6572 37.9883 25.7812 35.9619 26.7578 33.1787C28.1006 34.1553 29.6387 34.668 31.5918 34.668C33.5449 34.668 35.083 34.1553 36.4258 33.1787C37.4023 35.9619 39.5264 37.9883 43.2861 38.3301C41.6748 41.2842 39.0137 46.6553 38.1592 50.5371C42.4805 50.3662 46.1914 48.4375 47.7051 47.0703C49.7803 48.0957 51.709 48.5596 53.5156 48.5596C59.2285 48.5596 63.1836 44.4824 63.1836 38.5986C63.1836 35.6201 61.9629 32.4707 59.1553 29.6631C61.377 27.3438 62.2803 24.585 62.2803 21.875C62.2803 16.04 57.7881 10.6445 52.1729 9.98535C51.9287 4.3457 45.6543 0.317383 39.6484 0.317383C36.5723 0.317383 33.7158 1.26953 31.5918 3.4668C29.4678 1.26953 26.6113 0.317383 23.5352 0.317383C17.5293 0.317383 11.2549 4.3457 11.0107 9.98535C5.39551 10.6445 0.878906 16.04 0.878906 21.875C0.878906 24.585 1.80664 27.3438 4.02832 29.6631C1.2207 32.4707 0 35.6201 0 38.5986Z" fill="#ffffff" fill-opacity="0.85"/>
 </g>
</svg>
