<svg version="1.1" xmlns="http://www.w3.org/2000/svg" xmlns:xlink="http://www.w3.org/1999/xlink" width="92.3584" height="50.708">
 <g>
  <rect height="50.708" opacity="0" width="92.3584" x="0" y="0"/>
  <path d="M28.489 32.0708C24.4309 35.5956 22.1436 40.0992 22.1436 44.1406C22.1436 45.3278 22.436 46.4354 22.9963 47.3877L4.29688 47.3877C1.19629 47.3877 0 46.167 0 43.9697C0 37.207 6.88477 29.0771 17.8955 29.0771C22.0717 29.0771 25.6543 30.2467 28.489 32.0708ZM26.3916 15.9424C26.3916 21.2402 22.4609 25.3418 17.8955 25.3418C13.3545 25.3418 9.39941 21.2402 9.39941 15.9912C9.39941 10.791 13.3789 6.81152 17.8955 6.81152C22.4365 6.81152 26.3916 10.6934 26.3916 15.9424Z" fill="#ffffff" fill-opacity="0.85"/>
  <path d="M92.0166 43.9697C92.0166 46.167 90.8203 47.3877 87.7197 47.3877L69.0499 47.3877C69.6075 46.4354 69.8975 45.3278 69.8975 44.1406C69.8975 40.0963 67.6127 35.5891 63.5526 32.0629C66.3851 30.2435 69.9658 29.0771 74.1455 29.0771C85.1562 29.0771 92.0166 37.207 92.0166 43.9697ZM82.6416 15.9424C82.6416 21.2402 78.7109 25.3418 74.1455 25.3418C69.6045 25.3418 65.625 21.2402 65.625 15.9912C65.625 10.791 69.6045 6.81152 74.1455 6.81152C78.6865 6.81152 82.6416 10.6934 82.6416 15.9424Z" fill="#ffffff" fill-opacity="0.85"/>
  <path d="M46.0449 24.7803C51.2695 24.7803 55.8105 20.0928 55.8105 13.9893C55.8105 7.95898 51.2695 3.49121 46.0449 3.49121C40.8203 3.49121 36.2793 8.05664 36.2793 14.0381C36.2793 20.0928 40.7959 24.7803 46.0449 24.7803ZM29.6387 47.3877L62.4023 47.3877C65.0146 47.3877 66.5771 46.167 66.5771 44.1406C66.5771 37.8418 58.6914 29.1504 46.0205 29.1504C33.374 29.1504 25.4883 37.8418 25.4883 44.1406C25.4883 46.167 27.0508 47.3877 29.6387 47.3877Z" fill="#ffffff" fill-opacity="0.85"/>
 </g>
</svg>
