<?xml version="1.0" encoding="UTF-8"?>
<!--Generator: Apple Native CoreSVG 232.5-->
<!DOCTYPE svg
PUBLIC "-//W3C//DTD SVG 1.1//EN"
       "http://www.w3.org/Graphics/SVG/1.1/DTD/svg11.dtd">
<svg version="1.1" xmlns="http://www.w3.org/2000/svg" xmlns:xlink="http://www.w3.org/1999/xlink" width="104.443" height="51.8311">
 <g>
  <rect height="51.8311" opacity="0" width="104.443" x="0" y="0"/>
  <path d="M100.757 44.6045C100.757 47.29 98.8281 48.5107 94.7754 48.5107L75.602 48.5107C76.3172 47.4614 76.672 46.2067 76.6994 44.8242L95.9473 44.8242C96.582 44.8242 96.8262 44.6533 96.8262 44.1406C96.8262 40.1123 90.625 32.6416 79.4434 32.6416C76.6183 32.6416 74.1113 33.1164 71.9436 33.8929C71.0802 32.9184 70.0826 31.9963 68.9577 31.1547C71.9229 29.7955 75.4481 28.9551 79.4434 28.9551C92.6758 28.9551 100.757 38.208 100.757 44.6045ZM89.9902 14.4531C89.9902 20.752 85.2539 25.9033 79.4434 25.9033C73.6328 25.9033 68.8965 20.7764 68.8965 14.502C68.8965 8.30078 73.6572 3.2959 79.4434 3.2959C85.2783 3.2959 89.9902 8.20312 89.9902 14.4531ZM72.8271 14.502C72.8271 18.8232 75.8789 22.2168 79.4434 22.2168C83.0322 22.2168 86.0596 18.7744 86.0596 14.4531C86.0596 10.1807 83.0811 6.98242 79.4434 6.98242C75.8301 6.98242 72.8271 10.2539 72.8271 14.502Z" fill="#ffffff" fill-opacity="0.85"/>
  <path d="M73.3643 44.6045C73.3643 47.29 71.4355 48.5107 67.3828 48.5107L48.2153 48.5107C48.9278 47.4614 49.2798 46.2067 49.3069 44.8242L68.5547 44.8242C69.1895 44.8242 69.4336 44.6533 69.4336 44.1406C69.4336 40.1123 63.2324 32.6416 52.0508 32.6416C49.2282 32.6416 46.7231 33.1156 44.5565 33.8907C43.6935 32.9161 42.6963 31.9938 41.5715 31.1521C44.5353 29.7943 48.0583 28.9551 52.0508 28.9551C65.2832 28.9551 73.3643 38.208 73.3643 44.6045ZM62.5977 14.4531C62.5977 20.752 57.8613 25.9033 52.0508 25.9033C46.2646 25.9033 41.5039 20.7764 41.5039 14.502C41.5039 8.30078 46.2646 3.2959 52.0508 3.2959C57.8857 3.2959 62.5977 8.20312 62.5977 14.4531ZM45.4346 14.502C45.4346 18.8232 48.4863 22.2168 52.0508 22.2168C55.6641 22.2168 58.667 18.7744 58.667 14.4531C58.667 10.1807 55.6885 6.98242 52.0508 6.98242C48.4375 6.98242 45.4346 10.2539 45.4346 14.502Z" fill="#ffffff" fill-opacity="0.85"/>
  <path d="M24.6826 25.9033C30.4688 25.9033 35.2295 20.752 35.2295 14.4531C35.2295 8.20312 30.5176 3.2959 24.6826 3.2959C18.8721 3.2959 14.1357 8.30078 14.1357 14.502C14.1357 20.7764 18.8721 25.9033 24.6826 25.9033ZM24.6826 22.2168C21.1182 22.2168 18.0664 18.8232 18.0664 14.502C18.0664 10.2539 21.0449 6.98242 24.6826 6.98242C28.3203 6.98242 31.2988 10.1807 31.2988 14.4531C31.2988 18.7744 28.2715 22.2168 24.6826 22.2168ZM9.32617 48.5107L39.9902 48.5107C44.0674 48.5107 45.9961 47.29 45.9961 44.6045C45.9961 38.208 37.915 28.9551 24.6582 28.9551C11.4258 28.9551 3.34473 38.208 3.34473 44.6045C3.34473 47.29 5.27344 48.5107 9.32617 48.5107ZM8.1543 44.8242C7.51953 44.8242 7.27539 44.6533 7.27539 44.1406C7.27539 40.1123 13.4766 32.6416 24.6582 32.6416C35.8643 32.6416 42.0654 40.1123 42.0654 44.1406C42.0654 44.6533 41.7969 44.8242 41.1621 44.8242Z" fill="#ffffff" fill-opacity="0.85"/>
 </g>
</svg>
