<svg version="1.1" xmlns="http://www.w3.org/2000/svg" xmlns:xlink="http://www.w3.org/1999/xlink" width="42.9932" height="45.2393">
 <g>
  <rect height="45.2393" opacity="0" width="42.9932" x="0" y="0"/>
  <path d="M5.98145 45.2148L36.6699 45.2148C40.7227 45.2148 42.6514 43.9941 42.6514 41.3086C42.6514 34.9121 34.5703 25.6592 21.3379 25.6592C8.08105 25.6592 0 34.9121 0 41.3086C0 43.9941 1.92871 45.2148 5.98145 45.2148ZM4.83398 41.5283C4.19922 41.5283 3.93066 41.3574 3.93066 40.8447C3.93066 36.8164 10.1318 29.3457 21.3379 29.3457C32.5195 29.3457 38.7207 36.8164 38.7207 40.8447C38.7207 41.3574 38.4766 41.5283 37.8418 41.5283ZM21.3379 22.6074C27.1484 22.6074 31.8848 17.4561 31.8848 11.1572C31.8848 4.90723 27.1729 0 21.3379 0C15.5518 0 10.791 5.00488 10.791 11.2061C10.791 17.4805 15.5273 22.6074 21.3379 22.6074ZM21.3379 18.9209C17.7734 18.9209 14.7217 15.5273 14.7217 11.2061C14.7217 6.95801 17.7246 3.68652 21.3379 3.68652C24.9756 3.68652 27.9541 6.88477 27.9541 11.1572C27.9541 15.4785 24.9268 18.9209 21.3379 18.9209Z" fill="#ffffff" fill-opacity="0.85"/>
 </g>
</svg>
